<?xml version="1.0" encoding="utf-8"?>
<!-- Generator: Adobe Illustrator 15.1.0, SVG Export Plug-In . SVG Version: 6.00 Build 0)  -->
<svg version="1.2" baseProfile="tiny" id="Layer_1" xmlns="http://www.w3.org/2000/svg" xmlns:xlink="http://www.w3.org/1999/xlink"
	 x="0px" y="0px" width="295.333px" height="118.667px" viewBox="0 0 295.333 118.667" xml:space="preserve">
<path fill="#FFFFFF" d="M32.438,33.793l-5.424-13.217l-5.394,13.217 M151.929,28.53c-1.089,0.661-2.377,0.683-3.92,0.683h-9.627
	v-7.364h9.758c1.381,0,2.822,0.062,3.758,0.598c1.028,0.483,1.664,1.511,1.664,2.931C153.562,26.827,152.956,27.993,151.929,28.53z
	 M220.606,33.793l-5.484-13.217l-5.453,13.217H220.606z M92.587,48.099h-8.124l-0.03-25.966L72.941,48.099h-6.958L54.463,22.11
	v25.989H38.345L35.3,40.704H18.8l-3.076,7.395H7.116l14.191-33.154h11.773l13.479,31.39v-31.39h12.934l10.371,22.491l9.527-22.491
	h13.194L92.587,48.099L92.587,48.099z M124.966,48.099H98.492V14.945h26.474v6.904h-18.548v5.976h18.103v6.796h-18.103v6.621h18.548
	V48.099z M162.291,23.874c0,5.286-3.527,8.017-5.584,8.837c1.734,0.66,3.216,1.826,3.921,2.792c1.118,1.649,1.312,3.122,1.312,6.083
	v6.513h-7.993l-0.03-4.181c0-1.995,0.191-4.864-1.251-6.459c-1.157-1.166-2.923-1.419-5.775-1.419h-8.507v12.059h-7.925V14.945
	h18.228c4.05,0,7.034,0.107,9.596,1.588C160.788,18.014,162.291,20.176,162.291,23.874z M174.974,48.099h-8.086V14.945h8.086V48.099
	z M268.781,48.099h-11.229L242.53,23.215v24.884h-16.139l-3.084-7.395h-16.462l-2.992,7.395h-9.273
	c-3.852,0-8.729-0.852-11.49-3.667c-2.785-2.815-4.234-6.628-4.234-12.657c0-4.917,0.866-9.412,4.272-12.964
	c2.562-2.646,6.573-3.866,12.034-3.866h7.673v7.104h-7.512c-2.892,0-4.524,0.43-6.098,1.964c-1.352,1.396-2.278,4.035-2.278,7.51
	c0,3.552,0.706,6.113,2.18,7.786c1.22,1.312,3.437,1.71,5.522,1.71h3.559l11.17-26.073h11.874l13.417,31.359V14.946h12.065
	l13.93,23.09v-23.09h8.117V48.099L268.781,48.099z M7.024,54.611h13.54l3.053-7.364h6.835l3.045,7.364h26.642v-5.63l2.378,5.654
	h13.83l2.378-5.738v5.714h66.208l-0.031-12.088h1.281c0.896,0.031,1.159,0.114,1.159,1.595v10.493h34.243v-2.814
	c2.762,1.48,7.058,2.814,12.711,2.814h14.405l3.083-7.364h6.835l3.016,7.364h27.761v-6.996l4.204,6.996h22.246V8.371h-22.017v5.461
	l-3.083-5.461h-22.591v5.461l-2.831-5.461H194.81c-5.108,0-9.598,0.713-13.225,2.7v-2.7h-21.059v2.7
	c-2.308-2.048-5.453-2.7-8.95-2.7H74.644l-5.162,11.943L64.181,8.371H39.948v5.461l-2.662-5.461H16.62L7.023,30.356L7.024,54.611
	L7.024,54.611z"/>
<path fill="#FFFFFF" d="M288.97,79.066h-14.443c-1.441,0-2.399,0.054-3.207,0.599c-0.836,0.537-1.158,1.334-1.158,2.386
	c0,1.252,0.706,2.102,1.733,2.471c0.836,0.291,1.734,0.375,3.054,0.375l4.295,0.115c4.334,0.107,7.228,0.852,8.991,2.67
	c0.321,0.252,0.514,0.537,0.735,0.82 M288.97,100.93c-1.925,2.814-5.676,4.241-10.754,4.241h-15.305v-7.11h15.242
	c1.512,0,2.57-0.199,3.207-0.822c0.552-0.512,0.938-1.258,0.938-2.162c0-0.967-0.386-1.732-0.969-2.193
	c-0.574-0.506-1.411-0.736-2.792-0.736c-7.44-0.252-16.724,0.23-16.724-10.264c0-4.811,3.054-9.873,11.37-9.873h15.785v-6.598
	h-14.666c-4.426,0-7.642,1.061-9.918,2.708v-2.708h-21.693c-3.469,0-7.541,0.859-9.467,2.708v-2.708h-38.738v2.708
	c-3.083-2.224-8.285-2.708-10.686-2.708h-25.552v2.708c-2.439-2.362-7.863-2.708-11.17-2.708h-28.597l-6.544,7.082l-6.129-7.082
	H63.092v46.271h41.914l6.742-7.193l6.353,7.193l25.836,0.023v-10.885h2.54c3.428,0.053,7.471-0.086,11.038-1.627v12.488h21.31
	V99.623h1.028c1.312,0,1.441,0.055,1.441,1.365v10.693h64.735c4.11,0,8.406-1.052,10.785-2.961v2.961h20.534
	c4.272,0,8.446-0.599,11.621-2.133V100.93L288.97,100.93z M257.358,87.682c1.543,1.596,2.37,3.612,2.37,7.025
	c0,7.134-4.457,10.464-12.449,10.464h-15.435v-7.11h15.373c1.503,0,2.568-0.199,3.236-0.822c0.545-0.512,0.937-1.258,0.937-2.162
	c0-0.967-0.423-1.733-0.967-2.193c-0.606-0.506-1.442-0.736-2.822-0.736c-7.411-0.252-16.692,0.23-16.692-10.264
	c0-4.811,3.022-9.873,11.33-9.873h15.888v7.059H243.59c-1.441,0-2.378,0.054-3.176,0.599c-0.867,0.537-1.189,1.334-1.189,2.386
	c0,1.252,0.737,2.102,1.734,2.471c0.836,0.291,1.733,0.375,3.084,0.375l4.266,0.115C252.61,85.119,255.563,85.863,257.358,87.682z
	 M185.851,85.633c-1.061,0.629-2.371,0.684-3.913,0.684h-9.627v-7.448h9.758c1.411,0,2.823,0.03,3.782,0.599
	c1.027,0.537,1.641,1.564,1.641,2.982C187.491,83.869,186.878,85.012,185.851,85.633z M190.637,89.76
	c1.764,0.651,3.206,1.818,3.882,2.784c1.119,1.619,1.281,3.13,1.313,6.054v6.573h-7.955v-4.149c0-1.994,0.191-4.949-1.281-6.49
	c-1.158-1.188-2.923-1.473-5.814-1.473h-8.469v12.112h-7.963V72.009h18.296c4.012,0,6.934,0.177,9.535,1.565
	c2.501,1.511,4.074,3.58,4.074,7.363C196.253,86.23,192.723,88.932,190.637,89.76z M200.647,72.009h26.449v6.858h-18.558v6.029
	h18.104v6.766h-18.104v6.598l18.558,0.03v6.881h-26.449V72.009z M147.181,87.313h-10.241v-8.444h10.333
	c2.861,0,4.847,1.166,4.847,4.065C152.119,85.803,150.226,87.313,147.181,87.313z M129.047,102.154L116.88,88.646l12.167-13.078
	V102.154z M97.626,98.26H78.142v-6.598h17.397v-6.766H78.142v-6.029H98.01l8.668,9.664L97.626,98.26z M160.628,82.934
	c0,9.213-6.873,11.114-13.801,11.114h-9.888v11.123h-15.403l-9.758-10.978l-10.141,10.978H70.247V72.009h31.873l9.75,10.87
	l10.08-10.87h25.322C153.562,72.009,160.628,73.75,160.628,82.934z"/>
</svg>
