<?xml version="1.0" encoding="utf-8"?>
<!-- Generator: Adobe Illustrator 15.1.0, SVG Export Plug-In . SVG Version: 6.00 Build 0)  -->
<!DOCTYPE svg PUBLIC "-//W3C//DTD SVG 1.1//EN" "http://www.w3.org/Graphics/SVG/1.1/DTD/svg11.dtd">
<svg version="1.1" id="Layer_1" xmlns="http://www.w3.org/2000/svg" xmlns:xlink="http://www.w3.org/1999/xlink" x="0px" y="0px"
	 width="40px" height="40px" viewBox="0 0 40 40" enable-background="new 0 0 40 40" xml:space="preserve">
<g>
	<g>
		<path fill="#808080" d="M20.489,36.684c-8.951,0-16.232-7.281-16.232-16.232c0-8.95,7.281-16.231,16.232-16.231
			s16.232,7.281,16.232,16.231C36.721,29.402,29.44,36.684,20.489,36.684z M20.489,7.955c-6.89,0-12.496,5.605-12.496,12.496
			s5.606,12.497,12.496,12.497s12.496-5.606,12.496-12.497S27.379,7.955,20.489,7.955z"/>
	</g>
	<g>
		<rect x="26.728" y="19.023" fill="#808080" width="8" height="3"/>
	</g>
	<g>
		<rect x="5.728" y="19.023" fill="#808080" width="8" height="3"/>
	</g>
	<g>
		<rect x="18.728" y="27.023" fill="#808080" width="3" height="8"/>
	</g>
	<g>
		<rect x="18.728" y="6.023" fill="#808080" width="3" height="8"/>
	</g>
</g>
</svg>
