<?xml version="1.0" encoding="utf-8"?>
<!-- Generator: Adobe Illustrator 15.1.0, SVG Export Plug-In . SVG Version: 6.00 Build 0)  -->
<svg version="1.2" baseProfile="tiny" id="Layer_1" xmlns="http://www.w3.org/2000/svg" xmlns:xlink="http://www.w3.org/1999/xlink"
	 x="0px" y="0px" width="181px" height="113px" viewBox="0 0 181 113" xml:space="preserve">
<g>
	<path fill-rule="evenodd" fill="#FCB131" d="M90.42,92.041c8.667,7.986,20.307,12.83,32.967,12.83
		c27.188,0,49.195-22.176,49.195-49.451c0-27.358-22.007-49.535-49.195-49.535c-12.66,0-24.301,4.843-32.967,12.83
		c-9.941,9.091-16.229,22.176-16.229,36.705C74.192,69.949,80.479,83.035,90.42,92.041L90.42,92.041z"/>
	<path fill-rule="evenodd" fill="#FCB131" d="M166.04,82.949c0-0.85,0.68-1.529,1.529-1.529c0.935,0,1.614,0.68,1.614,1.529
		c0,0.936-0.68,1.615-1.614,1.615C166.72,84.564,166.04,83.885,166.04,82.949L166.04,82.949z M167.569,84.225
		c0.68,0,1.274-0.596,1.274-1.275s-0.595-1.189-1.274-1.189c-0.595,0-1.189,0.51-1.189,1.189S166.975,84.225,167.569,84.225
		L167.569,84.225z M167.4,83.715h-0.34V82.27h0.594c0.086,0,0.255,0,0.34,0.086c0.17,0.084,0.17,0.17,0.17,0.34
		s-0.084,0.34-0.255,0.34l0.34,0.68h-0.425l-0.17-0.596H167.4V83.715v-0.85h0.169c0.085,0,0.171,0,0.171,0
		c0.084,0,0.084-0.086,0.084-0.17c0-0.086,0-0.086-0.084-0.17c0,0-0.086,0-0.171,0H167.4v0.34V83.715L167.4,83.715z"/>
	<path fill-rule="evenodd" fill="#ED1C2E" d="M106.31,50.152c-0.17-1.784-0.511-3.483-0.851-5.268H75.382
		c0.34-1.784,0.849-3.484,1.359-5.183h27.275c-0.596-1.784-1.275-3.568-2.04-5.268h-23.11c0.85-1.784,1.784-3.568,2.804-5.268
		h17.418c-1.104-1.784-2.379-3.569-3.738-5.183h-9.941c1.529-1.869,3.229-3.653,5.013-5.268c-8.751-7.902-20.307-12.83-33.052-12.83
		c-27.104,0-49.195,22.176-49.195,49.535c0,27.275,22.091,49.451,49.195,49.451c12.745,0,24.3-4.844,33.052-12.83l0,0l0,0
		c1.785-1.615,3.399-3.314,4.928-5.184h-9.941c-1.359-1.699-2.549-3.398-3.738-5.268h17.418c1.104-1.699,2.039-3.398,2.889-5.268
		h-23.11c-0.765-1.699-1.529-3.398-2.125-5.184h27.275c0.595-1.699,1.019-3.482,1.443-5.268c0.34-1.699,0.681-3.484,0.851-5.268
		c0.17-1.699,0.255-3.398,0.255-5.184C106.564,53.636,106.479,51.852,106.31,50.152L106.31,50.152z"/>
	<path fill-rule="evenodd" fill="#FFFFFF" d="M166.04,66.891c0-0.934,0.68-1.613,1.529-1.613c0.935,0,1.614,0.68,1.614,1.613
		c0,0.85-0.68,1.615-1.614,1.615C166.72,68.506,166.04,67.74,166.04,66.891L166.04,66.891z M167.569,68.08
		c0.68,0,1.274-0.51,1.274-1.189s-0.595-1.189-1.274-1.189c-0.595,0-1.189,0.51-1.189,1.189S166.975,68.08,167.569,68.08
		L167.569,68.08z M167.4,67.57h-0.34v-1.359h0.594c0.086,0,0.255,0,0.34,0c0.17,0.086,0.17,0.256,0.17,0.426
		c0,0.084-0.084,0.254-0.255,0.34l0.34,0.594h-0.425l-0.17-0.51H167.4V67.57v-0.764h0.169c0.085,0,0.171,0,0.171-0.086
		c0.084,0,0.084-0.084,0.084-0.17c0,0,0-0.084-0.084-0.084c0-0.086-0.086,0-0.171,0H167.4v0.34V67.57L167.4,67.57z"/>
	<path fill-rule="evenodd" fill="#003473" d="M73.682,69.695c-1.614,0.424-2.804,0.68-3.993,0.68c-2.549,0-4.079-1.615-4.079-4.504
		c0-0.594,0.085-1.189,0.17-1.869l0.34-1.955l0.255-1.613l2.294-13.935h5.098l-0.595,3.059h3.229l-0.765,5.098h-3.229l-1.359,8.327
		c-0.085,0.426-0.085,0.68-0.085,0.85c0,1.105,0.51,1.529,1.784,1.529c0.595,0,1.104-0.084,1.614-0.17L73.682,69.695L73.682,69.695z
		"/>
	<path fill-rule="evenodd" fill="#003473" d="M90.166,69.525c-1.869,0.51-3.568,0.764-5.438,0.764c-5.777,0-9.091-3.059-9.091-9.092
		c0-7.051,3.909-12.149,9.346-12.149c4.333,0,7.138,2.889,7.138,7.392c0,1.529-0.17,2.975-0.595,5.014H80.904
		c-0.085,0.34-0.085,0.51-0.085,0.68c0,2.379,1.614,3.568,4.673,3.568c1.954,0,3.653-0.424,5.523-1.273L90.166,69.525L90.166,69.525
		z M87.022,57.375c0-0.426,0-0.766,0-1.02c0-1.7-0.935-2.634-2.549-2.634c-1.699,0-2.889,1.274-3.398,3.654H87.022L87.022,57.375z"
		/>
	<polygon fill-rule="evenodd" fill="#003473" points="32.898,69.949 27.63,69.949 30.689,50.663 23.807,69.949 20.154,69.949 
		19.729,50.748 16.5,69.949 11.317,69.949 15.48,44.885 23.212,44.885 23.382,60.348 28.565,44.885 37.062,44.885 32.898,69.949 	
		"/>
	<path fill-rule="evenodd" fill="#003473" d="M45.729,60.857c-0.51-0.084-0.68-0.084-1.02-0.084c-3.059,0-4.588,1.189-4.588,3.059
		c0,1.275,0.765,2.125,1.954,2.125C44.624,65.957,45.644,63.832,45.729,60.857L45.729,60.857z M49.977,69.949h-4.588l0.085-2.123
		c-1.19,1.613-2.804,2.463-5.608,2.463c-2.549,0-4.758-2.293-4.758-5.607c0-0.934,0.17-1.783,0.425-2.635
		c0.85-3.143,3.994-5.098,8.837-5.182c0.594,0,1.529,0,2.379,0.084c0.17-0.68,0.17-0.934,0.17-1.359
		c0-1.359-1.104-1.784-3.569-1.784c-1.529,0-3.229,0.255-4.418,0.68l-0.764,0.17l-0.34,0.085l0.764-4.588
		c2.464-0.764,4.249-1.104,6.203-1.104c4.588,0,7.052,2.124,7.052,6.032c0,1.02,0.085,1.785-0.255,3.994l-1.189,7.307l-0.17,1.275
		l-0.085,1.02l-0.085,0.68L49.977,69.949L49.977,69.949z"/>
	<path fill-rule="evenodd" fill="#003473" d="M115.825,49.728c1.529,0,2.889,0.424,4.758,1.359l0.935-5.438
		c-0.509-0.255-0.68-0.255-1.359-0.51l-2.124-0.595c-0.68-0.17-1.529-0.255-2.464-0.255c-2.634,0-4.163,0.085-5.777,1.02
		c-0.85,0.595-1.954,1.359-3.144,2.719l-0.68-0.17l-5.438,3.824l0.255-2.125h-5.607l-3.313,20.392h5.353l1.954-10.961
		c0,0,0.765-1.529,1.104-2.039c1.02-1.273,1.869-1.273,2.974-1.273c0.17,0,0.34,0,0.426,0c-0.171,1.189-0.256,2.463-0.256,3.908
		c0,6.627,3.739,10.791,9.517,10.791c1.444,0,2.719-0.17,4.673-0.68l0.935-5.777c-1.699,0.934-3.229,1.359-4.503,1.359
		c-3.144,0-5.013-2.379-5.013-6.119C109.028,53.636,111.832,49.728,115.825,49.728L115.825,49.728z"/>
	<path fill-rule="evenodd" fill="#003473" d="M160.942,44.885l-1.189,7.137c-1.274-1.954-2.804-2.889-4.843-2.889
		c-2.805,0-5.438,1.615-7.053,4.673v-0.085l-3.398-2.039l0.34-2.125h-5.692l-3.229,20.392h5.269l1.784-10.961
		c0,0,1.359-1.529,1.699-2.039c0.85-1.02,1.699-1.189,2.379-1.273c-0.595,1.699-0.935,3.738-0.935,6.031
		c0,5.1,2.634,8.498,6.543,8.498c1.954,0,3.483-0.68,4.928-2.295l-0.255,2.039h5.013l4.078-25.064H160.942L160.942,44.885z
		 M154.4,65.107c-1.784,0-2.719-1.359-2.719-3.994c0-3.994,1.698-6.882,4.163-6.882c1.869,0,2.804,1.445,2.804,3.994
		C158.648,62.303,156.949,65.107,154.4,65.107L154.4,65.107z"/>
	<path fill-rule="evenodd" fill="#003473" d="M129.845,60.857c-0.51-0.084-0.68-0.084-1.02-0.084c-3.059,0-4.588,1.189-4.588,3.059
		c0,1.275,0.765,2.125,1.954,2.125C128.74,65.957,129.76,63.832,129.845,60.857L129.845,60.857z M134.093,69.949h-4.673l0.17-2.123
		c-1.189,1.613-2.804,2.463-5.607,2.463c-2.634,0-4.928-2.209-4.928-5.607c0-4.844,3.653-7.816,9.431-7.816
		c0.595,0,1.529,0,2.294,0.084c0.17-0.68,0.255-0.934,0.255-1.359c0-1.359-1.104-1.784-3.653-1.784c-1.444,0-3.229,0.255-4.418,0.68
		l-0.68,0.17l-0.34,0.085l0.765-4.588c2.464-0.764,4.248-1.104,6.202-1.104c4.588,0,6.967,2.124,6.967,6.032
		c0,1.02,0.17,1.785-0.255,3.994l-1.104,7.307l-0.17,1.275l-0.17,1.02l-0.085,0.68V69.949L134.093,69.949z"/>
	<path fill-rule="evenodd" fill="#003473" d="M61.107,53.891c1.02,0,2.464,0.085,3.993,0.34l0.765-4.758
		c-1.529-0.17-3.569-0.425-4.758-0.425c-5.948,0-7.902,3.229-7.902,6.968c0,2.463,1.105,4.248,3.994,5.607
		c2.124,1.02,2.464,1.189,2.464,2.125c0,1.273-1.104,2.039-3.144,2.039c-1.614,0-3.144-0.256-4.843-0.85l-0.595,4.672l0.085,0.086
		l1.02,0.17c0.34,0.084,0.765,0.17,1.36,0.254c1.274,0.086,2.379,0.17,3.059,0.17c5.948,0,8.412-2.293,8.412-6.797
		c0-2.805-1.359-4.504-3.994-5.693c-2.294-1.02-2.549-1.189-2.549-2.123C58.473,54.741,59.493,53.891,61.107,53.891L61.107,53.891z"
		/>
	<path fill-rule="evenodd" fill="#FFFFFF" d="M122.963,44.035l-0.935,5.438c-1.87-0.935-3.229-1.359-4.759-1.359
		c-3.993,0-6.797,3.909-6.797,9.432c0,3.822,1.869,6.117,5.013,6.117c1.274,0,2.804-0.424,4.503-1.275l-0.934,5.693
		c-1.955,0.51-3.229,0.766-4.674,0.766c-5.777,0-9.347-4.164-9.347-10.877c0-8.921,4.929-15.208,11.98-15.208
		c0.935,0,1.784,0.085,2.465,0.255l2.124,0.51C122.283,43.78,122.453,43.865,122.963,44.035L122.963,44.035z"/>
	<path fill-rule="evenodd" fill="#FFFFFF" d="M105.799,47.773c-0.169,0-0.34,0-0.509,0c-1.785,0-2.805,0.85-4.419,3.314l0.51-3.144
		h-4.843l-3.313,20.393h5.353c1.954-12.49,2.464-14.615,5.013-14.615c0.17,0,0.17,0,0.34,0c0.51-2.464,1.189-4.249,2.04-5.863
		L105.799,47.773L105.799,47.773z"/>
	<path fill-rule="evenodd" fill="#FFFFFF" d="M75.042,68.08c-1.444,0.51-2.634,0.68-3.823,0.68c-2.719,0-4.249-1.529-4.249-4.502
		c0-0.51,0.085-1.191,0.17-1.785l0.34-2.039l0.254-1.615l2.294-13.934h5.268l-0.595,3.059h2.719l-0.68,5.013h-2.719l-1.444,8.497
		c-0.085,0.34-0.085,0.594-0.085,0.85c0,1.02,0.51,1.445,1.784,1.445c0.595,0,1.105,0,1.445-0.17L75.042,68.08L75.042,68.08z"/>
	<path fill-rule="evenodd" fill="#FFFFFF" d="M54.565,54.401c0,2.548,1.189,4.333,3.993,5.693c2.209,1.02,2.549,1.359,2.549,2.209
		c0,1.275-0.935,1.869-3.059,1.869c-1.614,0-3.059-0.254-4.758-0.764l-0.765,4.672l0.255,0.086l0.935,0.17
		c0.339,0.084,0.765,0.17,1.444,0.17c1.189,0.17,2.209,0.17,2.889,0.17c5.608,0,8.242-2.125,8.242-6.797
		c0-2.805-1.104-4.42-3.738-5.693c-2.294-1.02-2.549-1.275-2.549-2.209c0-1.104,0.935-1.614,2.634-1.614
		c1.02,0,2.464,0.085,3.823,0.255l0.765-4.673c-1.359-0.255-3.483-0.425-4.673-0.425C56.604,47.519,54.48,50.663,54.565,54.401
		L54.565,54.401z"/>
	<path fill-rule="evenodd" fill="#FFFFFF" d="M163.661,68.336h-5.013l0.255-1.955c-1.444,1.529-2.974,2.209-4.928,2.209
		c-3.909,0-6.458-3.313-6.458-8.412c0-6.796,3.993-12.574,8.667-12.574c2.124,0,3.653,0.935,5.098,2.804l1.189-7.138h5.269
		L163.661,68.336L163.661,68.336z M155.845,63.578c2.464,0,4.163-2.891,4.163-6.883c0-2.634-0.935-3.994-2.804-3.994
		c-2.379,0-4.164,2.804-4.164,6.796C153.04,62.219,153.976,63.578,155.845,63.578L155.845,63.578z"/>
	<path fill-rule="evenodd" fill="#FFFFFF" d="M91.355,67.91c-1.87,0.596-3.569,0.85-5.523,0.85c-5.948,0-9.007-3.143-9.007-9.176
		c0-6.967,3.909-12.15,9.262-12.15c4.418,0,7.222,2.889,7.222,7.392c0,1.53-0.17,2.973-0.68,5.098H82.094
		c-0.085,0.254-0.085,0.424-0.085,0.594c0,2.381,1.615,3.57,4.673,3.57c1.954,0,3.653-0.34,5.523-1.275L91.355,67.91L91.355,67.91z
		 M88.381,55.76c0-0.424,0-0.764,0-1.019c0-1.699-0.935-2.634-2.549-2.634c-1.7,0-2.889,1.275-3.399,3.653H88.381L88.381,55.76z"/>
	<polygon fill-rule="evenodd" fill="#FFFFFF" points="34.258,68.336 28.99,68.336 32.049,49.048 25.167,68.336 21.513,68.336 
		21.088,49.218 17.859,68.336 12.932,68.336 17.095,43.27 24.742,43.27 24.997,58.818 30.094,43.27 38.421,43.27 34.258,68.336 	"/>
	<path fill-rule="evenodd" fill="#FFFFFF" d="M47.428,59.244c-0.51,0-0.765-0.086-1.189-0.086c-2.974,0-4.503,1.105-4.503,3.145
		c0,1.275,0.68,2.039,1.869,2.039C45.813,64.342,47.343,62.303,47.428,59.244L47.428,59.244z M51.336,68.336h-4.418l0.085-2.125
		c-1.359,1.699-3.144,2.465-5.608,2.465c-2.889,0-4.843-2.209-4.843-5.523c0-5.014,3.398-7.902,9.346-7.902
		c0.595,0,1.36,0.086,2.209,0.17c0.17-0.679,0.17-0.934,0.17-1.274c0-1.359-0.935-1.869-3.399-1.869c-1.529,0-3.229,0.17-4.418,0.51
		l-0.765,0.255l-0.51,0.085l0.765-4.588c2.634-0.765,4.418-1.02,6.373-1.02c4.588,0,7.052,2.039,7.052,5.948
		c0,1.02-0.085,1.784-0.425,4.079l-1.19,7.223l-0.17,1.273l-0.085,1.02l-0.085,0.766L51.336,68.336L51.336,68.336z"/>
	<path fill-rule="evenodd" fill="#FFFFFF" d="M131.544,59.244c-0.595,0-0.85-0.086-1.189-0.086c-3.059,0-4.588,1.105-4.588,3.145
		c0,1.275,0.765,2.039,1.954,2.039C129.845,64.342,131.459,62.303,131.544,59.244L131.544,59.244z M135.452,68.336h-4.418
		l0.085-2.125c-1.359,1.699-3.144,2.465-5.607,2.465c-2.889,0-4.844-2.209-4.844-5.523c0-5.014,3.399-7.902,9.347-7.902
		c0.595,0,1.359,0.086,2.124,0.17c0.17-0.679,0.255-0.934,0.255-1.274c0-1.359-0.935-1.869-3.398-1.869
		c-1.529,0-3.313,0.17-4.503,0.51l-0.68,0.255l-0.51,0.085l0.765-4.588c2.634-0.765,4.418-1.02,6.372-1.02
		c4.588,0,6.967,2.039,6.967,5.948c0,1.02,0,1.784-0.425,4.079l-1.104,7.223l-0.17,1.273l-0.17,1.02l-0.085,0.766V68.336
		L135.452,68.336z"/>
	<path fill-rule="evenodd" fill="#FFFFFF" d="M149.727,47.773c-0.17,0-0.34,0-0.51,0c-1.784,0-2.804,0.85-4.418,3.314l0.51-3.144
		h-4.843l-3.229,20.393h5.269c1.954-12.49,2.464-14.615,5.013-14.615c0.17,0,0.17,0,0.34,0c0.51-2.464,1.189-4.249,2.039-5.863
		L149.727,47.773L149.727,47.773z"/>
</g>
</svg>
