<?xml version="1.0" encoding="utf-8"?>
<!-- Generator: Adobe Illustrator 15.1.0, SVG Export Plug-In . SVG Version: 6.00 Build 0)  -->
<svg version="1.2" baseProfile="tiny" id="Layer_1" xmlns="http://www.w3.org/2000/svg" xmlns:xlink="http://www.w3.org/1999/xlink"
	 x="0px" y="0px" width="131.75px" height="47.927px" viewBox="0 0 131.75 47.927" xml:space="preserve">
<g>
	<g>
		<polygon fill="#0066B3" points="57.444,43.693 47.711,43.693 53.794,6.308 63.528,6.308 		"/>
		<path fill="#0066B3" d="M39.523,6.308l-9.279,25.713l-1.098-5.537l0.001,0.002L25.872,9.675c0,0-0.396-3.367-4.617-3.367H5.916
			l-0.18,0.633c0,0,4.692,0.976,10.181,4.274l8.456,32.478h10.141L49.999,6.308H39.523z"/>
		<path fill="#0066B3" d="M116.079,43.693h8.937l-7.792-37.385h-7.825c-3.613,0-4.493,2.786-4.493,2.786L90.39,43.693h10.145
			l2.029-5.553h12.373L116.079,43.693z M105.369,30.468l5.114-13.99l2.877,13.99H105.369z"/>
		<path fill="#0066B3" d="M91.151,15.298l1.389-8.029c0,0-4.286-1.63-8.754-1.63c-4.83,0-16.3,2.112-16.3,12.376
			c0,9.659,13.462,9.779,13.462,14.851s-12.074,4.165-16.059,0.966l-1.448,8.393c0,0,4.346,2.112,10.987,2.112
			c6.641,0,16.662-3.44,16.662-12.799c0-9.72-13.583-10.625-13.583-14.851C77.507,12.46,86.986,13.003,91.151,15.298z"/>
	</g>
	<path fill="#FAA634" d="M29.147,26.486L25.872,9.675c0,0-0.396-3.367-4.617-3.367H5.916l-0.18,0.633c0,0,7.373,1.528,14.446,7.253
		C26.942,19.666,29.147,26.486,29.147,26.486z"/>
</g>
</svg>
